<svg width="300" height="300" viewBox="0 0 300 300" fill="none" xmlns="http://www.w3.org/2000/svg">
<rect width="300" height="300" rx="16" fill="black"/>
<g opacity="0.5">
<path d="M230.543 52V57.2286C223.672 58.4534 218.472 60.6202 214.941 63.7289C209.884 68.3453 203.921 75.4109 200.008 84.9257L120.412 248H115.116L35.209 82.8061C31.4875 74.3275 26.4281 69.1461 24.9014 67.2617C22.5158 64.3414 19.5816 62.0569 16.0987 60.4081C12.6157 58.7596 7.91618 57.6998 2 57.2286V52H79.7517V57.2286C70.7819 58.0766 66.5055 59.5839 63.8338 61.7505C61.1619 63.9175 59.8259 66.6966 59.826 70.088C59.8259 74.7985 62.0207 82.1468 66.4102 92.1327L125.422 204.476L183.119 93.5458C187.603 82.6178 191.324 75.0341 191.324 70.7945C191.324 68.0627 189.94 65.4484 187.173 62.9517C184.406 60.4554 181.275 58.689 174.691 57.6525C174.213 57.5585 173.402 57.4172 172.257 57.2286V52H230.543Z" fill="white"/>
<path d="M299 52V57.2286C292.129 58.4534 286.929 60.6202 283.399 63.7289C278.341 68.3453 272.378 75.4109 268.466 84.9257L198.61 248H193.314L119.495 82.8061C115.774 74.3275 110.714 69.1461 109.188 67.2617C106.802 64.3414 103.868 62.0569 100.385 60.4081C96.9019 58.7596 93.7467 57.6998 87.8306 57.2286V52H164.038V57.2286C155.068 58.0766 150.792 59.5839 148.12 61.7505C145.448 63.9175 144.112 66.6966 144.112 70.088C144.112 74.7985 146.307 82.1468 150.696 92.1327L203.62 204.476L251.576 93.5458C256.061 82.6178 259.781 75.0341 259.781 70.7945C259.781 68.0627 258.398 65.4484 255.631 62.9517C252.863 60.4554 248.188 58.689 241.604 57.6525C241.126 57.5585 240.315 57.4172 239.17 57.2286V52H299Z" fill="white"/>
</g>
<path d="M171.288 166.769C175.51 166.817 178.979 163.427 179.026 159.203C179.074 154.98 175.684 151.511 171.462 151.464C171.362 151.464 171.265 151.466 171.168 151.469C167.073 151.581 163.771 154.906 163.723 159.026C163.678 163.156 166.906 166.557 170.996 166.759C171.093 166.762 171.19 166.769 171.288 166.769Z" fill="white"/>
<path d="M158.99 162.688C158.892 162.688 158.79 162.688 158.693 162.688C154.598 162.688 151.296 165.725 151.253 169.848C151.206 173.975 154.433 177.175 158.523 177.379C158.621 177.384 158.718 177.29 158.82 177.29C163.042 177.337 166.507 174.299 166.554 170.072C166.599 165.85 163.212 162.688 158.99 162.688Z" fill="white"/>
<path d="M200.326 168.968C200.229 168.98 200.134 168.995 200.04 169.01C196.067 169.606 193.248 173.242 193.697 177.263C194.149 181.286 197.698 184.208 201.706 183.914C201.798 183.909 201.898 183.902 201.99 183.892C206.11 183.43 209.08 179.717 208.614 175.594C208.157 171.477 204.441 168.514 200.326 168.968Z" fill="white"/>
<path d="M192.481 166.44C192.601 166.432 192.723 166.425 192.843 166.412C197.985 165.836 201.691 161.2 201.115 156.052C200.544 150.912 195.905 147.209 190.763 147.782C190.643 147.795 190.523 147.815 190.404 147.832C185.443 148.578 181.929 153.112 182.485 158.135C183.049 163.155 187.478 166.806 192.481 166.44Z" fill="#9AE4AA"/>
<path d="M250.521 138.384C249.96 133.376 245.441 129.762 240.433 130.323C240.313 130.338 240.196 130.355 240.079 130.373C235.245 131.101 231.816 135.523 232.365 140.414C232.908 145.309 237.231 148.868 242.104 148.514C242.221 148.504 242.338 148.497 242.458 148.484C247.468 147.921 251.08 143.399 250.521 138.384Z" fill="white"/>
<path d="M217.784 171.463C217.687 171.473 217.592 171.488 217.5 171.501C213.525 172.099 210.706 175.733 211.155 179.753C211.607 183.779 215.156 186.701 219.161 186.41C219.258 186.4 219.356 186.395 219.45 186.385C223.565 185.923 226.533 182.207 226.074 178.09C225.615 173.972 221.902 171.002 217.784 171.463Z" fill="#9AE4AA"/>
<path d="M214.456 159.568C214.389 159.505 214.314 159.443 214.246 159.385C211.281 156.901 206.862 157.188 204.248 160.071C201.632 162.964 201.789 167.391 204.555 170.095C204.62 170.157 204.687 170.224 204.754 170.287C207.712 172.96 212.286 172.733 214.967 169.773C217.643 166.815 217.414 162.246 214.456 159.568Z" fill="white"/>
<path d="M227.715 139.222C225.123 137.05 221.26 137.299 218.978 139.823C216.691 142.352 216.826 146.22 219.242 148.582C219.3 148.637 219.36 148.694 219.422 148.752C222.006 151.091 226.001 150.889 228.343 148.303C230.682 145.719 230.483 141.723 227.897 139.384C227.837 139.327 227.777 139.274 227.715 139.222Z" fill="white"/>
<path d="M229.397 128.798C231.983 131.137 235.981 130.938 238.318 128.349C240.659 125.765 240.46 121.77 237.876 119.43C237.814 119.378 237.749 119.323 237.692 119.271C235.1 117.099 231.237 117.348 228.953 119.872C226.666 122.398 226.803 126.266 229.22 128.628C229.282 128.686 229.337 128.743 229.397 128.798Z" fill="white"/>
<path d="M228.764 151.464C228.632 151.464 228.504 151.466 228.375 151.469C222.995 151.616 218.653 155.988 218.591 161.402C218.534 166.829 222.773 171.298 228.15 171.563C228.278 171.57 228.41 171.575 228.537 171.578C234.088 171.638 238.642 167.186 238.702 161.629C238.765 156.08 234.31 151.526 228.764 151.464Z" fill="white"/>
<path d="M77.2382 152.973C77.3404 152.94 77.4452 152.91 77.5499 152.875C81.9468 151.397 84.3136 146.628 82.8346 142.226C81.3557 137.832 76.5872 135.463 72.1903 136.939C72.0856 136.974 71.9858 137.014 71.8836 137.051C67.6763 138.647 65.4541 143.291 66.8981 147.583C68.3446 151.883 72.9236 154.245 77.2382 152.973Z" fill="#9AE4AA"/>
<path d="M124.535 130.127C124.47 130.197 124.41 130.269 124.348 130.342C121.782 133.332 122.016 137.836 124.927 140.535C127.84 143.233 132.351 143.131 135.139 140.342C135.204 140.278 135.274 140.208 135.339 140.138C138.1 137.158 137.923 132.496 134.94 129.731C131.96 126.97 127.298 127.149 124.535 130.127Z" fill="white"/>
<path d="M100.388 145.543C100.463 145.471 100.537 145.393 100.61 145.319C103.702 142.009 103.523 136.814 100.211 133.719C96.9013 130.629 91.7063 130.806 88.6188 134.116C88.5465 134.193 88.4741 134.273 88.4068 134.355C85.5362 137.675 85.7806 142.695 89.0078 145.713C92.2425 148.733 97.2704 148.636 100.388 145.543Z" fill="white"/>
<path d="M58.1705 147.847C58.0857 147.862 58.0009 147.884 57.9161 147.902C54.427 148.715 52.18 152.147 52.8633 155.686C53.5491 159.235 56.9135 161.579 60.4525 161.035C60.5373 161.023 60.6221 161.01 60.7093 160.99C64.3381 160.292 66.7123 156.778 66.009 153.144C65.3107 149.518 61.7967 147.144 58.1705 147.847Z" fill="white"/>
<path d="M130.249 150.529C129.373 154.157 131.535 157.806 135.102 158.809C135.187 158.834 135.271 158.856 135.361 158.876C139.072 159.766 142.811 157.479 143.706 153.763C144.596 150.052 142.309 146.314 138.598 145.421C138.509 145.401 138.421 145.381 138.337 145.366C134.703 144.635 131.119 146.902 130.249 150.529Z" fill="#9AE4AA"/>
<path d="M73.3553 165.287C76.4378 166.027 79.5403 164.127 80.2835 161.042C81.0242 157.959 79.1238 154.859 76.0413 154.119C75.9715 154.099 75.8966 154.086 75.8243 154.071C72.8116 153.465 69.8363 155.348 69.113 158.356C68.3873 161.369 70.1804 164.399 73.1408 165.232C73.2131 165.249 73.283 165.269 73.3553 165.287Z" fill="white"/>
<path d="M123.944 165.436C123.83 165.409 123.712 165.386 123.598 165.361C118.772 164.394 114.011 167.406 112.854 172.222C111.694 177.045 114.564 181.891 119.3 183.226C119.415 183.258 119.527 183.288 119.647 183.315C124.58 184.505 129.548 181.462 130.735 176.519C131.917 171.589 128.877 166.623 123.944 165.436Z" fill="#9AE4AA"/>
<path d="M101.307 164.658C101.207 164.7 101.112 164.75 101.015 164.798C97.0296 166.76 95.2838 171.541 97.1094 175.626C98.9375 179.719 103.664 181.604 107.789 179.946C107.888 179.906 107.986 179.866 108.085 179.821C112.27 177.951 114.148 173.035 112.278 168.848C110.405 164.665 105.492 162.787 101.307 164.658Z" fill="white"/>
<path d="M100.449 154.084C98.5033 149.729 93.3906 147.779 89.0362 149.724C88.9339 149.769 88.8317 149.819 88.7344 149.869C84.5869 151.914 82.7688 156.887 84.6692 161.137C86.5721 165.391 91.4877 167.354 95.7799 165.631C95.8846 165.591 95.9869 165.546 96.0891 165.501C100.444 163.556 102.399 158.443 100.449 154.084Z" fill="white"/>
<path d="M85.8815 166.028C85.7469 165.975 85.6097 165.926 85.47 165.873C79.7538 163.783 73.3668 166.572 71.0499 172.245C68.7255 177.922 71.3242 184.388 76.8683 186.907C77.0005 186.967 77.1352 187.027 77.2723 187.084C83.0833 189.459 89.7272 186.673 92.1065 180.857C94.4758 175.049 91.69 168.407 85.8815 166.028Z" fill="#9AE4AA"/>
<path d="M130.509 74.8354C126.397 73.0622 121.593 74.8404 119.65 78.9106C117.705 82.9832 119.344 87.8415 123.309 89.9215C123.404 89.9739 123.501 90.0212 123.598 90.0686C127.766 92.0588 132.761 90.2881 134.751 86.1182C136.739 81.9532 134.971 76.9578 130.806 74.9701C130.704 74.9202 130.606 74.8778 130.509 74.8354Z" fill="white"/>
<path d="M114.367 58.648C114.485 58.7078 114.602 58.7727 114.724 58.8275C119.854 61.2741 126.002 59.0969 128.451 53.9643C130.897 48.8367 128.72 42.689 123.593 40.2399C123.473 40.1851 123.348 40.1302 123.229 40.0778C118.168 37.8956 112.253 40.0878 109.863 45.0932C107.469 50.1086 109.487 56.0866 114.367 58.648Z" fill="white"/>
<path d="M103.356 97.401C103.453 97.4509 103.548 97.5008 103.645 97.5482C107.81 99.5359 112.805 97.7677 114.798 93.5977C116.783 89.4328 115.015 84.4374 110.85 82.4497C110.753 82.4023 110.653 82.3599 110.556 82.3175C106.446 80.5443 101.637 82.325 99.6969 86.3926C97.7541 90.4628 99.3926 95.3186 103.356 97.401Z" fill="white"/>
<path d="M84.6313 76.7858C84.751 76.8482 84.8757 76.913 85.0004 76.9729C90.3076 79.5043 96.6697 77.2522 99.2061 71.9375C101.74 66.6304 99.4879 60.2682 94.1783 57.7319C94.0536 57.6745 93.9264 57.6196 93.8017 57.5648C88.5643 55.3052 82.4441 57.5747 79.9701 62.7572C77.4936 67.9472 79.581 74.1347 84.6313 76.7858Z" fill="#9AE4AA"/>
<path d="M106.144 134.956C110.309 136.944 115.304 135.176 117.295 131.006C119.282 126.841 117.514 121.845 113.347 119.858C113.249 119.813 113.15 119.768 113.05 119.726C108.94 117.955 104.136 119.733 102.191 123.801C100.248 127.873 101.887 132.732 105.85 134.812C105.949 134.862 106.047 134.911 106.144 134.956Z" fill="white"/>
<path d="M95.5201 115.784C100.219 118.023 105.848 116.033 108.092 111.33C110.332 106.636 108.339 101.007 103.643 98.7649C103.533 98.7125 103.421 98.6626 103.311 98.6152C98.6774 96.6175 93.2605 98.6227 91.0733 103.207C88.8811 107.798 90.7292 113.272 95.1984 115.619C95.3031 115.676 95.4103 115.734 95.5201 115.784Z" fill="#9AE4AA"/>
<path d="M106.897 78.6438C107.014 78.7062 107.133 78.766 107.253 78.8259C112.393 81.2775 118.556 79.0977 121.015 73.9502C123.466 68.8076 121.284 62.6475 116.144 60.1934C116.022 60.1385 115.902 60.0837 115.78 60.0313C110.707 57.8441 104.779 60.0388 102.385 65.0591C99.9832 70.0845 102.006 76.0775 106.897 78.6438Z" fill="white"/>
<path d="M54.8794 113.739C60.0195 116.193 66.1846 114.011 68.6387 108.864C71.0903 103.724 68.9081 97.5635 63.7705 95.1094C63.6483 95.0521 63.5261 94.9997 63.4038 94.9473C58.3336 92.7601 52.4054 94.9548 50.0087 99.9752C47.612 105.001 49.6321 110.991 54.5228 113.56C54.6425 113.62 54.7597 113.682 54.8794 113.739Z" fill="white"/>
<path d="M80.4261 102.726C80.5832 102.724 80.7453 102.719 80.905 102.709C87.7459 102.282 92.9509 96.3814 92.5244 89.533C92.0954 82.6945 86.1972 77.4896 79.3562 77.916C79.1966 77.926 79.037 77.9435 78.8774 77.9584C72.2633 78.6243 67.3128 84.4004 67.7293 91.0817C68.1483 97.7681 73.7797 102.888 80.4261 102.726Z" fill="white"/>
<path d="M84.4849 109.927C84.3228 109.867 84.1607 109.81 83.9961 109.757C77.2424 107.495 69.8602 110.957 67.3214 117.671C64.7825 124.389 68.0296 131.871 74.5963 134.642C74.7534 134.71 74.913 134.777 75.0726 134.837C81.946 137.433 89.63 133.959 92.2312 127.078C94.8274 120.207 91.3583 112.523 84.4849 109.927Z" fill="white"/>
<path d="M172.545 105.072C172.653 105.122 172.757 105.174 172.865 105.222C177.439 107.244 182.791 105.172 184.818 100.593C186.843 96.0215 184.771 90.6669 180.195 88.6443C180.087 88.5969 179.98 88.5521 179.873 88.5097C175.361 86.7165 170.216 88.7965 168.241 93.2607C166.263 97.7324 168.191 102.94 172.545 105.072Z" fill="white"/>
<path d="M159.903 112.005C162.432 111.833 164.342 109.638 164.168 107.107C163.996 104.58 161.806 102.67 159.272 102.842C159.215 102.849 159.157 102.852 159.097 102.859C156.656 103.119 154.835 105.268 155.005 107.737C155.174 110.209 157.267 112.089 159.723 112.015C159.786 112.01 159.846 112.01 159.903 112.005Z" fill="white"/>
<path d="M176.465 85.3846C176.575 85.3821 176.69 85.3796 176.802 85.3721C181.613 85.0404 185.249 80.868 184.918 76.0496C184.586 71.2412 180.413 67.6075 175.605 67.9367C175.493 67.9467 175.383 67.9567 175.268 67.9691C170.62 68.4679 167.163 72.5531 167.485 77.2517C167.804 81.9504 171.792 85.5267 176.465 85.3846Z" fill="#9AE4AA"/>
<path d="M172.743 52.2521C172.848 52.297 172.953 52.3419 173.055 52.3818C177.554 54.1201 182.614 51.8805 184.358 47.3764C186.093 42.8798 183.851 37.8195 179.357 36.0812C179.25 36.0413 179.143 36.0039 179.035 35.969C174.616 34.4501 169.75 36.6872 168.055 41.0791C166.354 45.4735 168.451 50.4016 172.743 52.2521Z" fill="#9AE4AA"/>
<path d="M204.183 79.4754C207.054 83.2164 212.348 83.992 216.167 81.2885C216.256 81.2237 216.349 81.1588 216.438 81.089C220.262 78.1536 220.982 72.6668 218.045 68.8361C215.109 65.0128 209.622 64.2921 205.802 67.225C205.709 67.2973 205.622 67.3696 205.537 67.4395C201.941 70.4273 201.315 75.7419 204.183 79.4754Z" fill="white"/>
<path d="M150.177 52.6906C150.301 52.6881 150.431 52.6831 150.556 52.6756C155.978 52.304 160.075 47.6004 159.701 42.1685C159.33 36.7491 154.628 32.654 149.206 33.0231C149.077 33.0331 148.952 33.0481 148.827 33.058C143.588 33.6217 139.689 38.2255 140.054 43.5178C140.42 48.8199 144.909 52.8527 150.177 52.6906Z" fill="white"/>
<path d="M151.756 62.9674C153.489 68.3868 159.188 71.432 164.625 69.9181C164.755 69.8832 164.889 69.8458 165.019 69.8059C170.563 68.0327 173.621 62.0945 171.848 56.5429C170.072 51.0013 164.134 47.9412 158.595 49.7144C158.462 49.7593 158.335 49.8042 158.208 49.8491C152.901 51.7695 150.025 57.5555 151.756 62.9674Z" fill="white"/>
<path d="M181.296 67.6326C184.251 73.2091 191.072 75.4138 196.711 72.6929C196.846 72.628 196.983 72.5632 197.117 72.4908C202.821 69.4681 204.996 62.3828 201.966 56.6716C198.943 50.9728 191.858 48.7981 186.156 51.8208C186.022 51.8956 185.894 51.9704 185.76 52.0428C180.348 55.1852 178.345 62.066 181.296 67.6326Z" fill="white"/>
<path d="M204.716 85.3969C203.698 79.6383 198.197 75.7901 192.436 76.8077C192.298 76.8326 192.169 76.8601 192.032 76.8875C186.487 78.0896 182.841 83.4641 183.839 89.0905C184.831 94.7219 190.101 98.5227 195.72 97.7471C195.857 97.7296 195.99 97.7122 196.129 97.6872C201.885 96.6697 205.738 91.168 204.716 85.3969Z" fill="white"/>
<path d="M127.739 64.0843C128.832 70.2519 134.598 74.4143 140.753 73.5639C140.9 73.5464 141.047 73.524 141.197 73.4991C147.504 72.3842 151.719 66.3563 150.601 60.0416C149.487 53.7368 143.461 49.522 137.154 50.6368C137.004 50.6642 136.857 50.6966 136.713 50.7266C130.642 52.0409 126.649 57.9267 127.739 64.0843Z" fill="#9AE4AA"/>
<path d="M189.316 116C189.426 116.005 189.533 116.007 189.643 116.007C194.311 116.007 198.1 112.217 198.1 107.545C198.1 102.879 194.311 99.0908 189.643 99.0908C189.533 99.0908 189.426 99.0958 189.316 99.0983C184.794 99.2704 181.181 102.986 181.181 107.545C181.181 112.109 184.794 115.828 189.316 116Z" fill="white"/>
<path d="M203.488 119.455C203.573 119.487 203.658 119.517 203.748 119.547C207.469 120.747 211.464 118.702 212.666 114.976C213.866 111.255 211.821 107.262 208.1 106.06C208.012 106.03 207.923 106.007 207.835 105.98C204.187 104.955 200.351 106.987 199.179 110.621C198.002 114.262 199.927 118.155 203.488 119.455Z" fill="#9AE4AA"/>
<path d="M214.689 119.906C214.569 119.958 214.45 120.016 214.332 120.073C209.439 122.452 207.272 128.283 209.477 133.296C211.686 138.314 217.455 140.656 222.513 138.655C222.632 138.606 222.754 138.558 222.874 138.506C228.009 136.246 230.341 130.246 228.079 125.108C225.82 119.978 219.824 117.646 214.689 119.906Z" fill="#9AE4AA"/>
<path d="M180.693 112.638C178.436 107.507 172.435 105.176 167.303 107.435C167.183 107.487 167.066 107.547 166.946 107.605C162.058 109.984 159.886 115.815 162.09 120.825C164.3 125.843 170.069 128.185 175.126 126.185C175.248 126.135 175.373 126.088 175.49 126.035C180.623 123.778 182.952 117.778 180.693 112.638Z" fill="#9AE4AA"/>
<path d="M201.816 150.333C203.574 154.325 208.163 156.188 212.189 154.6C212.283 154.557 212.381 154.522 212.478 154.48C216.561 152.679 218.416 147.906 216.615 143.821C214.817 139.738 210.046 137.883 205.964 139.681C205.869 139.723 205.774 139.771 205.682 139.815C201.791 141.706 200.065 146.345 201.816 150.333Z" fill="white"/>
<path d="M162.471 149.322C162.555 149.287 162.645 149.252 162.73 149.215C166.414 147.596 168.084 143.291 166.463 139.605C164.845 135.924 160.538 134.251 156.857 135.872C156.772 135.912 156.687 135.952 156.6 135.992C153.093 137.697 151.537 141.882 153.118 145.474C154.707 149.077 158.844 150.756 162.471 149.322Z" fill="white"/>
<path d="M215.828 86.7354C211.429 86.0022 207.204 88.8678 206.294 93.2671C205.386 97.674 208.129 101.984 212.461 103.051C212.566 103.076 212.668 103.103 212.776 103.123C217.285 104.056 221.694 101.151 222.629 96.6415C223.557 92.1349 220.654 87.723 216.148 86.7928C216.043 86.7703 215.936 86.7554 215.828 86.7354Z" fill="#9AE4AA"/>
<path d="M172.39 141.03C172.467 141.028 172.547 141.028 172.624 141.02C175.931 140.801 178.438 137.938 178.221 134.628C177.999 131.321 175.138 128.812 171.831 129.032C171.754 129.037 171.677 129.047 171.597 129.054C168.402 129.389 166.018 132.189 166.23 135.421C166.447 138.654 169.178 141.118 172.39 141.03Z" fill="white"/>
<path d="M151.266 127.936C151.481 131.168 154.214 133.638 157.426 133.548C157.504 133.545 157.584 133.543 157.658 133.538C160.968 133.318 163.474 130.455 163.257 127.146C163.035 123.839 160.175 121.332 156.868 121.549C156.788 121.554 156.711 121.564 156.633 121.572C153.439 121.906 151.052 124.709 151.266 127.936Z" fill="white"/>
<path d="M221.477 106.603C218.279 106.937 215.895 109.741 216.11 112.97C216.322 116.205 219.057 118.671 222.27 118.582C222.347 118.579 222.424 118.579 222.504 118.574C225.811 118.355 228.318 115.492 228.101 112.18C227.879 108.873 225.018 106.366 221.709 106.586C221.631 106.586 221.551 106.593 221.477 106.603Z" fill="white"/>
<path d="M178.034 152.237C180.972 152.843 183.845 150.95 184.453 148.015C185.06 145.08 183.167 142.204 180.231 141.598C180.164 141.586 180.092 141.573 180.024 141.563C177.159 141.084 174.405 142.952 173.812 145.818C173.221 148.688 175.006 151.497 177.829 152.192C177.897 152.205 177.967 152.225 178.034 152.237Z" fill="white"/>
<path d="M174.729 167.26C174.564 167.332 174.407 167.412 174.247 167.487C169.693 169.706 166.883 174.141 166.544 178.899C166.317 179.009 166.095 179.116 165.868 179.231C158.635 182.845 154.271 185.688 151.822 189.217C151.709 184.765 151.697 182.296 151.839 177.937C151.812 176.408 151.782 175.019 151.754 173.782C151.667 170.073 151.63 167.776 151.63 167.464C151.63 165.848 172.524 146.971 181.991 138.502C184.218 142.734 188.583 145.667 193.653 145.862C193.828 145.869 194.01 145.877 194.187 145.877C201.781 145.877 207.946 139.709 207.946 132.107C207.946 124.513 201.781 118.348 194.187 118.348C194.01 118.348 193.828 118.356 193.653 118.361C186.293 118.642 180.418 124.69 180.418 132.105C180.418 133.988 180.799 135.783 181.485 137.419C175.846 141.609 154.907 158.057 152.011 159.868C151.712 159.381 151.56 157.691 151.52 155.147C152.198 142.402 152.198 128.735 153.423 115.647C153.498 114.585 153.575 113.527 153.647 112.495C153.904 108.956 154.144 105.699 154.355 102.948C155.777 102.833 157.206 102.514 158.598 101.973C158.775 101.903 158.962 101.83 159.136 101.756C166.756 98.4561 170.26 89.5926 166.955 81.966C163.658 74.3494 154.797 70.8453 147.178 74.1449C146.998 74.2172 146.821 74.302 146.647 74.3843C139.387 77.8659 136.12 86.4826 139.342 93.9196C141.462 98.8103 145.864 102.008 150.762 102.798C150.422 104.28 150.113 106.168 149.829 108.327C149.622 109.906 149.432 111.627 149.253 113.415C148.397 122.658 147.639 132.529 147.639 141.642C143.088 134.813 139.816 127.987 136.653 120.902C139.666 118.53 141.783 115.014 142.287 110.904C143.3 102.666 137.431 95.1591 129.191 94.1465C128.997 94.1241 128.805 94.1066 128.613 94.0917C120.59 93.4158 113.412 99.1943 112.424 107.24C111.434 115.295 117.003 122.643 124.949 123.927C125.141 123.957 125.333 123.987 125.528 124.012C128.406 124.366 131.191 123.877 133.646 122.745C138.446 133.953 145.873 145.682 144.756 157.052C144.706 157.987 144.696 159.012 144.696 160.175C144.696 162.791 144.749 166.115 144.539 170.734C144.467 172.275 144.367 173.961 144.222 175.812C143.636 174.989 143.035 174.181 142.419 173.378C141.803 172.582 141.172 171.796 140.531 171.021C139.885 170.248 139.23 169.49 138.559 168.746C134.73 165.315 131.019 161.509 127.119 157.907C128.974 154.623 129.483 150.593 128.186 146.737C125.765 139.539 117.956 135.661 110.756 138.083C110.589 138.14 110.422 138.203 110.257 138.265C103.369 140.879 99.73 148.483 102.094 155.511C104.461 162.549 111.958 166.412 119.026 164.332C119.195 164.282 119.365 164.232 119.535 164.175C122.211 163.277 124.423 161.629 126.029 159.551C129.77 162.943 133.157 166.771 135.848 171.35C136.703 172.734 137.446 174.103 138.097 175.445C144.604 189.479 140.569 203.881 139.953 218.723C139.873 219.598 139.796 220.491 139.716 221.402C139.539 223.372 139.359 225.427 139.177 227.524C137.99 241.219 136.733 256.863 136.169 263.906C139.554 265.587 143.464 266.552 147.637 266.552C151.799 266.552 155.7 265.59 159.079 263.921C157.6 257.043 155.321 243.109 154.026 226.913C153.817 224.297 153.63 221.624 153.483 218.905C153.405 217.72 153.338 216.533 153.271 215.346C152.625 207.972 152.091 200.342 151.862 192.741C155.386 189.381 161.209 185.478 166.726 182.191C166.91 183.274 167.217 184.351 167.681 185.404C170.674 192.2 178.49 195.364 185.338 192.654C185.503 192.589 185.67 192.521 185.829 192.449C192.783 189.384 195.938 181.259 192.87 174.3C189.805 167.352 181.679 164.195 174.729 167.26Z" fill="white"/>
</svg>
